<?xml version="1.0" standalone="no"?>
<!DOCTYPE svg PUBLIC "-//W3C//DTD SVG 20010904//EN"
 "http://www.w3.org/TR/2001/REC-SVG-20010904/DTD/svg10.dtd">
<svg version="1.0" xmlns="http://www.w3.org/2000/svg"
 width="256.000000pt" height="256.000000pt" viewBox="0 0 256.000000 256.000000"
 preserveAspectRatio="xMidYMid meet">
<metadata>
Created by potrace 1.14, written by Peter Selinger 2001-2017
</metadata>
<g transform="translate(0.000000,256.000000) scale(0.100000,-0.100000)"
fill="#000000" stroke="none">
<path d="M1365 2550 c-3 -5 -14 -10 -24 -10 -23 0 -103 -70 -130 -114 -33 -53
-26 -243 8 -221 5 3 11 -2 15 -10 3 -8 12 -15 20 -15 17 0 28 24 20 45 -7 18
-30 20 -37 3 -3 -7 -6 -3 -6 10 -1 19 4 22 35 22 28 0 35 3 32 18 -2 9 -13 18
-26 20 -24 4 -26 9 -13 31 8 13 18 11 65 -12 30 -15 60 -27 65 -27 6 0 11 -9
11 -20 0 -17 7 -20 40 -20 29 0 40 4 40 15 0 18 1 18 34 5 24 -9 26 -14 26
-72 0 -113 -65 -188 -162 -188 -64 0 -96 23 -131 94 l-27 55 -57 -18 c-32 -10
-85 -26 -118 -36 -85 -24 -383 -178 -442 -228 -27 -23 -78 -81 -114 -129 -35
-48 -67 -88 -71 -88 -5 0 -8 -7 -8 -15 0 -8 16 -19 39 -25 39 -10 71 -44 71
-75 0 -36 26 -16 123 98 26 31 67 69 90 85 45 30 215 98 224 89 2 -3 -11 -41
-30 -84 -19 -43 -40 -99 -47 -125 -17 -64 -9 -192 24 -375 l27 -152 -19 -43
c-11 -24 -61 -87 -111 -141 -50 -55 -93 -109 -96 -120 -2 -12 -6 -31 -7 -41
-2 -11 -9 -21 -17 -24 -9 -3 -11 0 -6 8 11 17 -3 9 -90 -54 -133 -96 -355
-296 -328 -296 5 0 50 18 99 41 49 22 105 47 124 56 19 9 71 33 115 54 80 38
94 38 95 -2 0 -15 -58 -46 -235 -124 -33 -15 -78 -35 -100 -44 -22 -10 -51
-22 -64 -26 -52 -16 -106 -52 -128 -84 -13 -19 -22 -36 -20 -38 2 -2 55 21
118 51 63 29 146 68 184 86 39 17 110 52 159 77 52 25 98 42 109 39 17 -4 18
-1 13 32 -13 81 -17 168 -7 181 8 12 16 12 54 -3 25 -9 48 -24 51 -31 7 -20
23 -19 30 3 3 9 16 22 28 28 13 6 61 31 108 56 47 25 143 76 215 113 71 37
146 78 167 91 21 13 40 24 43 24 10 0 180 112 187 124 4 5 4 14 2 18 -3 4 -1
8 3 8 5 0 14 -19 20 -42 9 -33 9 -46 0 -54 -11 -10 -50 -32 -197 -110 -19 -11
-37 -21 -40 -24 -3 -3 -21 -13 -40 -24 -19 -10 -82 -43 -140 -74 -243 -128
-312 -162 -330 -162 -25 0 -25 -6 -1 -36 11 -14 22 -20 25 -15 3 5 39 27 79
49 142 78 193 106 247 135 30 16 71 40 90 53 19 13 40 24 47 24 7 0 13 5 13
10 0 6 6 10 13 10 8 0 33 14 55 30 23 17 44 30 47 30 2 0 38 21 79 46 58 36
81 45 101 40 47 -12 152 -64 158 -79 7 -19 60 -29 94 -16 15 6 42 28 58 49 17
22 33 39 37 40 7 0 288 198 298 210 3 3 33 26 67 52 51 38 60 48 48 58 -15 12
-40 3 -67 -23 -14 -14 -107 -81 -173 -124 -22 -14 -63 -43 -92 -64 -28 -21
-69 -48 -91 -59 -31 -16 -39 -26 -40 -50 0 -16 -10 -39 -21 -51 -19 -21 -20
-21 -65 -4 -66 25 -80 44 -71 100 8 55 32 86 94 122 26 14 98 60 161 102 63
41 142 93 175 114 l60 38 -55 -7 c-30 -3 -65 -10 -78 -15 -12 -5 -96 -65 -187
-134 -133 -101 -167 -122 -172 -109 -3 9 0 32 7 52 16 46 13 187 -5 250 -24
80 -102 144 -273 224 l-83 39 34 47 c18 26 46 71 62 100 24 44 32 52 49 47
101 -31 194 -33 269 -6 28 10 88 36 132 58 92 45 102 65 62 123 -26 39 -8 37
-213 24 -99 -6 -119 -4 -177 15 -79 27 -102 48 -88 84 5 14 19 33 30 44 10 10
26 37 34 61 14 42 14 46 -10 100 -31 71 -64 107 -127 138 -51 25 -139 33 -151
14z m-28 -1165 c38 -14 77 -29 88 -34 11 -6 48 -19 81 -31 73 -26 84 -43 89
-145 2 -41 1 -57 -3 -38 l-7 32 -65 -23 c-36 -13 -87 -34 -115 -47 -27 -13
-54 -23 -60 -24 -5 -1 -23 -7 -39 -13 -16 -7 -32 -10 -35 -6 -5 5 -9 354 -4
354 2 0 33 -11 70 -25z m-70 -397 c-3 -7 -5 -2 -5 12 0 14 2 19 5 13 2 -7 2
-19 0 -25z m-10 -40 c-3 -8 -6 -5 -6 6 -1 11 2 17 5 13 3 -3 4 -12 1 -19z
m-55 -59 c-24 -21 -48 -39 -54 -39 -6 0 2 10 18 22 16 13 38 33 49 45 11 12
22 19 25 16 3 -2 -15 -22 -38 -44z m-106 -84 c-27 -19 -55 -35 -62 -35 -7 0
-14 -4 -16 -9 -1 -4 -14 -12 -28 -15 -21 -6 -20 -4 8 13 18 12 36 21 41 21 5
0 11 3 13 8 4 10 70 52 83 52 5 0 -12 -16 -39 -35z m-164 -95 c-42 -26 -56
-26 -17 0 17 11 35 20 40 20 6 0 -5 -9 -23 -20z"/>
<path d="M1411 2218 c-10 -27 3 -50 25 -41 18 7 15 54 -4 61 -6 2 -16 -7 -21
-20z"/>
<path d="M1328 2133 c7 -3 16 -2 19 1 4 3 -2 6 -13 5 -11 0 -14 -3 -6 -6z"/>
<path d="M1322 2093 c-21 -8 6 -33 37 -33 26 0 51 16 51 32 0 9 -67 10 -88 1z"/>
<path d="M345 1390 c-3 -5 -1 -10 4 -10 6 0 11 5 11 10 0 6 -2 10 -4 10 -3 0
-8 -4 -11 -10z"/>
<path d="M1912 1298 c-37 -15 -57 -29 -63 -46 -5 -14 -7 -27 -5 -29 3 -3 26
10 53 28 110 74 113 85 15 47z"/>
<path d="M2283 1099 c-103 -78 -232 -171 -286 -208 -148 -100 -390 -250 -404
-251 -7 0 -13 -3 -13 -8 0 -4 -17 -16 -37 -27 -21 -11 -54 -29 -73 -41 -19
-11 -89 -49 -155 -84 -148 -78 -159 -84 -165 -90 -9 -10 -412 -207 -500 -245
-140 -61 -307 -102 -298 -74 2 7 24 21 49 30 24 9 78 29 119 45 114 42 371
164 514 243 50 28 71 40 176 97 19 10 37 22 38 27 2 4 9 7 16 7 6 0 28 11 48
25 20 14 56 35 80 48 24 13 92 52 151 88 59 35 128 75 151 89 24 14 74 43 111
65 l67 40 -31 9 c-28 8 -42 1 -153 -71 -124 -80 -164 -105 -228 -140 -192
-106 -249 -137 -440 -236 -557 -287 -704 -347 -855 -347 -130 0 -108 -23 55
-56 203 -41 427 -16 795 89 153 44 418 167 580 268 193 120 514 386 730 605
122 123 199 244 155 244 -5 0 -94 -64 -197 -141z m-377 -322 c-20 -16 -27 -28
-21 -37 5 -7 4 -11 -1 -7 -5 3 -18 -1 -29 -9 -10 -8 -16 -14 -12 -14 3 0 -6
-13 -21 -29 -19 -20 -31 -25 -40 -18 -9 7 -11 6 -7 -5 6 -16 -55 -70 -93 -82
-12 -4 -27 -16 -33 -27 -6 -12 -17 -18 -24 -15 -7 2 -16 -2 -19 -10 -3 -9 -10
-12 -16 -9 -6 3 -13 -1 -16 -10 -6 -13 -8 -14 -15 -3 -7 10 -9 10 -9 1 0 -7
-7 -13 -15 -13 -8 0 -14 -6 -13 -12 2 -8 -6 -13 -19 -12 -13 1 -20 -2 -18 -6
3 -4 -2 -10 -10 -14 -8 -3 -17 0 -21 6 -4 6 -3 8 3 5 6 -4 8 3 5 19 -6 30 -9
28 -15 -10 -2 -19 -11 -32 -26 -38 l-22 -8 19 28 c11 15 18 32 16 37 -2 6 9
19 24 30 18 13 23 14 14 3 -10 -13 -10 -17 2 -21 14 -6 31 19 27 37 -1 5 5 4
13 -3 13 -11 15 -9 11 9 -4 18 -2 20 11 9 12 -10 18 -8 32 12 9 13 16 27 14
31 -1 4 18 13 43 19 33 8 45 16 43 28 -2 10 5 17 20 19 12 2 22 8 22 13 0 6 5
7 10 4 6 -3 10 1 10 9 0 9 7 17 15 17 31 3 34 4 47 20 18 21 68 52 75 45 3 -3
17 4 31 14 13 11 27 20 31 20 3 0 -7 -11 -23 -23z m-541 -347 c-3 -5 2 -10 11
-10 10 0 15 -3 11 -6 -3 -3 -15 -3 -28 1 -17 6 -19 9 -8 16 18 11 22 11 14 -1z
m-5 -30 c11 -8 8 -9 -14 -6 -16 3 -31 8 -34 11 -10 9 33 5 48 -5z"/>
<path d="M892 440 c2 -9 14 -15 28 -15 14 0 26 6 28 15 2 11 -6 15 -28 15 -22
0 -30 -4 -28 -15z"/>
<path d="M861 408 c11 -20 30 -20 36 -1 2 6 -7 13 -21 15 -22 4 -24 3 -15 -14z"/>
<path d="M810 410 c0 -5 -14 -10 -31 -10 -19 0 -28 -4 -24 -11 4 -6 13 -8 20
-5 8 3 15 1 17 -4 3 -9 58 -1 58 9 0 3 -9 12 -20 19 -12 7 -20 8 -20 2z"/>
</g>
</svg>
